<svg width="833" height="393" viewBox="0 0 833 393" fill="none" xmlns="http://www.w3.org/2000/svg">
<rect width="832.297" height="392.402" transform="translate(0.655762)" fill="black"/>
<g filter="url(#filter0_f_1_12837)">
<ellipse cx="413.528" cy="186.812" rx="110.607" ry="21.3375" fill="#1F88F8" fill-opacity="0.35"/>
</g>
<path d="M414.743 229.402C478.091 229.402 529.444 178.049 529.444 114.701C529.444 51.3534 478.091 0 414.743 0C351.395 0 300.042 51.3534 300.042 114.701C300.042 178.049 351.395 229.402 414.743 229.402Z" fill="url(#paint0_linear_1_12837)"/>
<g filter="url(#filter1_d_1_12837)">
<path d="M510.824 77.624L412.533 146.219L314.243 77.624L404.22 14.8054C406.66 13.1047 409.563 12.1929 412.538 12.1929C415.512 12.1929 418.415 13.1047 420.855 14.8054L438.803 27.3528L443.502 30.6161L490.82 63.657L495.805 67.1569L510.824 77.624Z" fill="url(#paint1_linear_1_12837)"/>
</g>
<path d="M396.551 135.066L314.243 193.594V77.624L396.551 135.066Z" fill="url(#paint2_linear_1_12837)"/>
<path d="M428.523 135.066L510.832 193.594V77.624L428.523 135.066Z" fill="url(#paint3_linear_1_12837)"/>
<path d="M314.243 193.594L404.114 129.698C406.574 127.947 409.518 127.006 412.538 127.006C415.557 127.006 418.501 127.947 420.961 129.698L510.824 193.594H314.243Z" fill="url(#paint4_linear_1_12837)"/>
<g filter="url(#filter2_d_1_12837)">
<path d="M324.628 56.6099C309.56 63.6586 293.367 67.9977 276.793 69.4281C279.032 74.634 294.945 100.693 342.181 122.165C343.458 122.361 372.954 108.639 389.142 99.2293C388.592 100.015 338.861 81.7159 324.628 56.6099Z" fill="url(#paint5_linear_1_12837)"/>
</g>
<path d="M325.794 69.566C325.101 69.0849 324.223 68.955 323.42 69.2148L297.056 77.7443C296.111 78.0499 295.775 79.2131 296.41 79.9757C296.922 80.5898 297.759 80.8243 298.516 80.5653L325.552 71.3048C326.315 71.0435 326.457 70.0257 325.794 69.566Z" fill="#C9DFFF"/>
<path d="M325.337 80.0712C324.668 79.4433 323.709 79.2341 322.839 79.5266L304.588 85.6691C303.783 85.9399 303.499 86.9329 304.039 87.5885C304.48 88.1241 305.206 88.3306 305.863 88.107L325.009 81.5879C325.656 81.3678 325.835 80.5385 325.337 80.0712Z" fill="#C9DFFF"/>
<path d="M335.133 85.2731C334.436 84.7143 333.497 84.5596 332.657 84.865L311.633 92.5059C310.808 92.8058 310.56 93.8526 311.162 94.4911C311.623 94.9797 312.331 95.1464 312.962 94.915L334.872 86.8748C335.553 86.6248 335.7 85.7266 335.133 85.2731Z" fill="#C9DFFF"/>
<path d="M342.483 101.044C341.837 100.33 340.818 100.086 339.918 100.429L327.903 105.014C327.166 105.296 326.9 106.203 327.369 106.838C327.808 107.434 328.592 107.661 329.282 107.394L342.16 102.406C342.715 102.191 342.883 101.486 342.483 101.044Z" fill="#C9DFFF"/>
<g filter="url(#filter3_d_1_12837)">
<path d="M498.812 92.9507C517.084 101.498 536.718 106.759 556.815 108.494C554.1 114.806 534.805 146.404 477.529 172.44C475.98 172.678 440.214 156.039 420.586 144.629C421.253 145.582 481.554 123.393 498.812 92.9507Z" fill="url(#paint6_linear_1_12837)"/>
</g>
<path d="M497.399 108.661C498.24 108.078 499.305 107.92 500.278 108.235L532.246 118.578C533.391 118.948 533.799 120.359 533.029 121.284C532.408 122.028 531.393 122.313 530.476 121.998L497.692 110.77C496.767 110.453 496.595 109.219 497.399 108.661Z" fill="#C9DFFF"/>
<path d="M488.448 117.175C489.259 116.413 490.423 116.16 491.477 116.514L513.608 123.962C514.584 124.291 514.928 125.495 514.274 126.29C513.739 126.939 512.858 127.19 512.062 126.919L488.846 119.014C488.062 118.747 487.845 117.741 488.448 117.175Z" fill="#C9DFFF"/>
<path d="M479.25 124.242C480.096 123.564 481.234 123.377 482.253 123.747L507.745 133.012C508.745 133.376 509.047 134.645 508.316 135.419C507.757 136.012 506.899 136.214 506.134 135.933L479.567 126.184C478.741 125.881 478.563 124.792 479.25 124.242Z" fill="#C9DFFF"/>
<path d="M458.552 138.382C459.336 137.516 460.571 137.219 461.662 137.636L476.231 143.195C477.126 143.537 477.448 144.637 476.879 145.407C476.346 146.129 475.396 146.405 474.56 146.081L458.944 140.033C458.271 139.772 458.068 138.917 458.552 138.382Z" fill="#C9DFFF"/>
<path d="M468.062 130.831C468.924 130.29 469.988 130.178 470.944 130.527L504.512 142.801C505.585 143.193 505.845 144.592 504.985 145.343C504.416 145.84 503.621 145.987 502.912 145.726L468.284 132.97C467.351 132.626 467.219 131.359 468.062 130.831Z" fill="#C9DFFF"/>
<path d="M349.754 88.7204C349.043 88.2742 348.165 88.1819 347.377 88.4702L319.693 98.5922C318.809 98.9157 318.594 100.069 319.304 100.689C319.773 101.099 320.429 101.22 321.013 101.005L349.571 90.4847C350.341 90.201 350.449 89.1565 349.754 88.7204Z" fill="#C9DFFF"/>
<path d="M509.764 26.9985C509.764 29.644 507.619 31.7886 504.974 31.7886C502.328 31.7886 500.184 29.644 500.184 26.9985C500.184 24.3531 502.328 22.2085 504.974 22.2085C507.619 22.2085 509.764 24.3531 509.764 26.9985Z" stroke="url(#paint7_linear_1_12837)" stroke-width="2.61276"/>
<circle cx="335.145" cy="204.666" r="4.79006" stroke="url(#paint8_linear_1_12837)" stroke-width="2.61276"/>
<circle cx="482.33" cy="214.246" r="4.79006" stroke="url(#paint9_linear_1_12837)" stroke-width="2.61276"/>
<path d="M351.402 31.932C351.917 29.799 354.951 29.799 355.466 31.932L357.199 39.1108C357.383 39.8731 357.978 40.4682 358.74 40.6522L365.919 42.3851C368.052 42.9 368.052 45.9339 365.919 46.4488L358.74 48.1817C357.978 48.3657 357.383 48.9609 357.199 49.7231L355.466 56.9019C354.951 59.0349 351.917 59.0349 351.402 56.9019L349.669 49.7231C349.485 48.9609 348.89 48.3657 348.128 48.1817L340.949 46.4488C338.816 45.9339 338.816 42.9 340.949 42.3851L348.128 40.6522C348.89 40.4682 349.485 39.8731 349.669 39.1108L351.402 31.932Z" fill="url(#paint10_linear_1_12837)"/>
<path d="M525.912 183.417C526.427 181.284 529.461 181.284 529.976 183.417L531.709 190.596C531.893 191.358 532.488 191.953 533.25 192.137L540.429 193.87C542.562 194.385 542.562 197.419 540.429 197.934L533.25 199.667C532.488 199.851 531.893 200.446 531.709 201.208L529.976 208.387C529.461 210.52 526.427 210.52 525.912 208.387L524.179 201.208C523.995 200.446 523.4 199.851 522.638 199.667L515.459 197.934C513.326 197.419 513.326 194.385 515.459 193.87L522.638 192.137C523.4 191.953 523.995 191.358 524.179 190.596L525.912 183.417Z" fill="url(#paint11_linear_1_12837)"/>
<path d="M303.276 166.614C304.6 166.402 305.657 167.703 305.178 168.956L301.949 177.411C301.471 178.664 299.816 178.929 298.97 177.888L293.262 170.864C292.417 169.823 293.015 168.258 294.339 168.046L303.276 166.614Z" fill="url(#paint12_linear_1_12837)"/>
<path d="M529.371 80.4219C529.039 79.1226 530.239 77.9519 531.53 78.3147L540.243 80.7633C541.534 81.126 541.948 82.7502 540.988 83.6867L534.511 90.0084C533.552 90.9449 531.938 90.4915 531.607 89.1922L529.371 80.4219Z" fill="url(#paint13_linear_1_12837)"/>
<path d="M151.964 304.402V287.602H155.036V304.402H151.964ZM163.524 304.402C162.276 304.402 161.276 304.098 160.524 303.49C159.772 302.882 159.396 301.802 159.396 300.25V295.066H157.356V292.498H159.396L159.756 289.306H162.468V292.498H165.684V295.066H162.468V300.274C162.468 300.85 162.588 301.25 162.828 301.474C163.084 301.682 163.516 301.786 164.124 301.786H165.612V304.402H163.524ZM167.745 293.506L169.065 287.602H172.305L169.857 293.506H167.745ZM178.351 304.69C177.295 304.69 176.367 304.522 175.567 304.186C174.767 303.834 174.127 303.354 173.647 302.746C173.167 302.138 172.879 301.434 172.783 300.634H175.879C175.975 301.098 176.231 301.498 176.647 301.834C177.079 302.154 177.631 302.314 178.303 302.314C178.975 302.314 179.463 302.178 179.767 301.906C180.087 301.634 180.247 301.322 180.247 300.97C180.247 300.458 180.023 300.114 179.575 299.938C179.127 299.746 178.503 299.562 177.703 299.386C177.191 299.274 176.671 299.138 176.143 298.978C175.615 298.818 175.127 298.618 174.679 298.378C174.247 298.122 173.895 297.802 173.623 297.418C173.351 297.018 173.215 296.53 173.215 295.954C173.215 294.898 173.631 294.01 174.463 293.29C175.311 292.57 176.495 292.21 178.015 292.21C179.423 292.21 180.543 292.538 181.375 293.194C182.223 293.85 182.727 294.754 182.887 295.906H179.983C179.807 295.026 179.143 294.586 177.991 294.586C177.415 294.586 176.967 294.698 176.647 294.922C176.343 295.146 176.191 295.426 176.191 295.762C176.191 296.114 176.423 296.394 176.887 296.602C177.351 296.81 177.967 297.002 178.735 297.178C179.567 297.37 180.327 297.586 181.015 297.826C181.719 298.05 182.279 298.394 182.695 298.858C183.111 299.306 183.319 299.954 183.319 300.802C183.335 301.538 183.143 302.202 182.743 302.794C182.343 303.386 181.767 303.85 181.015 304.186C180.263 304.522 179.375 304.69 178.351 304.69ZM197.063 304.402C195.815 304.402 194.815 304.098 194.063 303.49C193.311 302.882 192.935 301.802 192.935 300.25V295.066H190.895V292.498H192.935L193.295 289.306H196.007V292.498H199.223V295.066H196.007V300.274C196.007 300.85 196.127 301.25 196.367 301.474C196.623 301.682 197.055 301.786 197.663 301.786H199.151V304.402H197.063ZM201.86 304.402V287.122H204.932V294.322C205.332 293.666 205.868 293.154 206.54 292.786C207.228 292.402 208.012 292.21 208.892 292.21C210.364 292.21 211.5 292.674 212.3 293.602C213.116 294.53 213.524 295.89 213.524 297.682V304.402H210.476V297.97C210.476 296.946 210.268 296.162 209.852 295.618C209.452 295.074 208.812 294.802 207.932 294.802C207.068 294.802 206.348 295.106 205.772 295.714C205.212 296.322 204.932 297.17 204.932 298.258V304.402H201.86ZM222.246 304.69C221.046 304.69 219.982 304.434 219.054 303.922C218.126 303.41 217.398 302.69 216.87 301.762C216.342 300.834 216.078 299.762 216.078 298.546C216.078 297.314 216.334 296.218 216.846 295.258C217.374 294.298 218.094 293.554 219.006 293.026C219.934 292.482 221.022 292.21 222.27 292.21C223.438 292.21 224.47 292.466 225.366 292.978C226.262 293.49 226.958 294.194 227.454 295.09C227.966 295.97 228.222 296.954 228.222 298.042C228.222 298.218 228.214 298.402 228.198 298.594C228.198 298.786 228.19 298.986 228.174 299.194H219.126C219.19 300.122 219.51 300.85 220.086 301.378C220.678 301.906 221.39 302.17 222.222 302.17C222.846 302.17 223.366 302.034 223.782 301.762C224.214 301.474 224.534 301.106 224.742 300.658H227.862C227.638 301.41 227.262 302.098 226.734 302.722C226.222 303.33 225.582 303.81 224.814 304.162C224.062 304.514 223.206 304.69 222.246 304.69ZM222.27 294.706C221.518 294.706 220.854 294.922 220.278 295.354C219.702 295.77 219.334 296.41 219.174 297.274H225.102C225.054 296.49 224.766 295.866 224.238 295.402C223.71 294.938 223.054 294.706 222.27 294.706ZM243.58 304.69C242.684 304.69 241.9 304.522 241.228 304.186C240.556 303.85 240.012 303.378 239.596 302.77L239.26 304.402H236.524V287.122H239.596V294.202C239.98 293.674 240.484 293.21 241.108 292.81C241.748 292.41 242.572 292.21 243.58 292.21C244.7 292.21 245.7 292.482 246.58 293.026C247.46 293.57 248.156 294.314 248.668 295.258C249.18 296.202 249.436 297.274 249.436 298.474C249.436 299.674 249.18 300.746 248.668 301.69C248.156 302.618 247.46 303.354 246.58 303.898C245.7 304.426 244.7 304.69 243.58 304.69ZM242.932 302.002C243.908 302.002 244.716 301.674 245.356 301.018C245.996 300.362 246.316 299.514 246.316 298.474C246.316 297.434 245.996 296.578 245.356 295.906C244.716 295.234 243.908 294.898 242.932 294.898C241.94 294.898 241.124 295.234 240.484 295.906C239.86 296.562 239.548 297.41 239.548 298.45C239.548 299.49 239.86 300.346 240.484 301.018C241.124 301.674 241.94 302.002 242.932 302.002ZM257.965 304.69C256.765 304.69 255.701 304.434 254.773 303.922C253.845 303.41 253.117 302.69 252.589 301.762C252.061 300.834 251.797 299.762 251.797 298.546C251.797 297.314 252.053 296.218 252.565 295.258C253.093 294.298 253.813 293.554 254.725 293.026C255.653 292.482 256.741 292.21 257.989 292.21C259.157 292.21 260.189 292.466 261.085 292.978C261.981 293.49 262.677 294.194 263.173 295.09C263.685 295.97 263.941 296.954 263.941 298.042C263.941 298.218 263.933 298.402 263.917 298.594C263.917 298.786 263.909 298.986 263.893 299.194H254.845C254.909 300.122 255.229 300.85 255.805 301.378C256.397 301.906 257.109 302.17 257.941 302.17C258.565 302.17 259.085 302.034 259.501 301.762C259.933 301.474 260.253 301.106 260.461 300.658H263.581C263.357 301.41 262.981 302.098 262.453 302.722C261.941 303.33 261.301 303.81 260.533 304.162C259.781 304.514 258.925 304.69 257.965 304.69ZM257.989 294.706C257.237 294.706 256.573 294.922 255.997 295.354C255.421 295.77 255.053 296.41 254.893 297.274H260.821C260.773 296.49 260.485 295.866 259.957 295.402C259.429 294.938 258.773 294.706 257.989 294.706ZM271.307 300.85C270.731 300.85 270.195 300.786 269.699 300.658L268.811 301.546C269.083 301.69 269.451 301.81 269.915 301.906C270.379 302.002 271.131 302.098 272.171 302.194C273.755 302.338 274.907 302.714 275.627 303.322C276.347 303.93 276.707 304.77 276.707 305.842C276.707 306.546 276.515 307.21 276.131 307.834C275.747 308.474 275.155 308.986 274.355 309.37C273.555 309.77 272.531 309.97 271.283 309.97C269.587 309.97 268.219 309.65 267.179 309.01C266.139 308.386 265.619 307.442 265.619 306.178C265.619 305.106 266.139 304.178 267.179 303.394C266.859 303.25 266.579 303.098 266.339 302.938C266.115 302.778 265.915 302.61 265.739 302.434V301.882L267.827 299.674C266.899 298.858 266.435 297.81 266.435 296.53C266.435 295.73 266.627 295.002 267.011 294.346C267.411 293.69 267.971 293.17 268.691 292.786C269.411 292.402 270.283 292.21 271.307 292.21C271.979 292.21 272.603 292.306 273.179 292.498H277.691V294.37L275.651 294.514C275.971 295.122 276.131 295.794 276.131 296.53C276.131 297.33 275.939 298.058 275.555 298.714C275.171 299.37 274.611 299.89 273.875 300.274C273.155 300.658 272.299 300.85 271.307 300.85ZM271.307 298.498C271.931 298.498 272.443 298.33 272.843 297.994C273.259 297.658 273.467 297.178 273.467 296.554C273.467 295.93 273.259 295.45 272.843 295.114C272.443 294.778 271.931 294.61 271.307 294.61C270.651 294.61 270.123 294.778 269.723 295.114C269.323 295.45 269.123 295.93 269.123 296.554C269.123 297.178 269.323 297.658 269.723 297.994C270.123 298.33 270.651 298.498 271.307 298.498ZM268.427 305.866C268.427 306.458 268.699 306.898 269.243 307.186C269.803 307.49 270.483 307.642 271.283 307.642C272.051 307.642 272.675 307.482 273.155 307.162C273.635 306.858 273.875 306.442 273.875 305.914C273.875 305.482 273.715 305.122 273.395 304.834C273.091 304.546 272.475 304.37 271.547 304.306C270.891 304.258 270.283 304.186 269.723 304.09C269.259 304.346 268.923 304.626 268.715 304.93C268.523 305.234 268.427 305.546 268.427 305.866ZM281.587 290.65C281.027 290.65 280.563 290.482 280.195 290.146C279.843 289.81 279.667 289.386 279.667 288.874C279.667 288.362 279.843 287.946 280.195 287.626C280.563 287.29 281.027 287.122 281.587 287.122C282.147 287.122 282.603 287.29 282.955 287.626C283.323 287.946 283.507 288.362 283.507 288.874C283.507 289.386 283.323 289.81 282.955 290.146C282.603 290.482 282.147 290.65 281.587 290.65ZM280.051 304.402V292.498H283.123V304.402H280.051ZM286.329 304.402V292.498H289.041L289.281 294.514C289.649 293.81 290.177 293.25 290.865 292.834C291.569 292.418 292.393 292.21 293.337 292.21C294.809 292.21 295.953 292.674 296.769 293.602C297.585 294.53 297.993 295.89 297.993 297.682V304.402H294.921V297.97C294.921 296.946 294.713 296.162 294.297 295.618C293.881 295.074 293.233 294.802 292.353 294.802C291.489 294.802 290.777 295.106 290.217 295.714C289.673 296.322 289.401 297.17 289.401 298.258V304.402H286.329ZM300.931 304.402V292.498H303.643L303.883 294.514C304.251 293.81 304.779 293.25 305.467 292.834C306.171 292.418 306.995 292.21 307.939 292.21C309.411 292.21 310.555 292.674 311.371 293.602C312.187 294.53 312.595 295.89 312.595 297.682V304.402H309.523V297.97C309.523 296.946 309.315 296.162 308.899 295.618C308.483 295.074 307.835 294.802 306.955 294.802C306.091 294.802 305.379 295.106 304.819 295.714C304.275 296.322 304.003 297.17 304.003 298.258V304.402H300.931ZM317.188 290.65C316.628 290.65 316.164 290.482 315.796 290.146C315.444 289.81 315.268 289.386 315.268 288.874C315.268 288.362 315.444 287.946 315.796 287.626C316.164 287.29 316.628 287.122 317.188 287.122C317.748 287.122 318.204 287.29 318.556 287.626C318.924 287.946 319.108 288.362 319.108 288.874C319.108 289.386 318.924 289.81 318.556 290.146C318.204 290.482 317.748 290.65 317.188 290.65ZM315.652 304.402V292.498H318.724V304.402H315.652ZM321.931 304.402V292.498H324.643L324.883 294.514C325.251 293.81 325.779 293.25 326.467 292.834C327.171 292.418 327.995 292.21 328.939 292.21C330.411 292.21 331.555 292.674 332.371 293.602C333.187 294.53 333.595 295.89 333.595 297.682V304.402H330.523V297.97C330.523 296.946 330.315 296.162 329.899 295.618C329.483 295.074 328.835 294.802 327.955 294.802C327.091 294.802 326.379 295.106 325.819 295.714C325.275 296.322 325.003 297.17 325.003 298.258V304.402H321.931ZM341.572 300.85C340.996 300.85 340.46 300.786 339.964 300.658L339.076 301.546C339.348 301.69 339.716 301.81 340.18 301.906C340.644 302.002 341.396 302.098 342.436 302.194C344.02 302.338 345.172 302.714 345.892 303.322C346.612 303.93 346.972 304.77 346.972 305.842C346.972 306.546 346.78 307.21 346.396 307.834C346.012 308.474 345.42 308.986 344.62 309.37C343.82 309.77 342.796 309.97 341.548 309.97C339.852 309.97 338.484 309.65 337.444 309.01C336.404 308.386 335.884 307.442 335.884 306.178C335.884 305.106 336.404 304.178 337.444 303.394C337.124 303.25 336.844 303.098 336.604 302.938C336.38 302.778 336.18 302.61 336.004 302.434V301.882L338.092 299.674C337.164 298.858 336.7 297.81 336.7 296.53C336.7 295.73 336.892 295.002 337.276 294.346C337.676 293.69 338.236 293.17 338.956 292.786C339.676 292.402 340.548 292.21 341.572 292.21C342.244 292.21 342.868 292.306 343.444 292.498H347.956V294.37L345.916 294.514C346.236 295.122 346.396 295.794 346.396 296.53C346.396 297.33 346.204 298.058 345.82 298.714C345.436 299.37 344.876 299.89 344.14 300.274C343.42 300.658 342.564 300.85 341.572 300.85ZM341.572 298.498C342.196 298.498 342.708 298.33 343.108 297.994C343.524 297.658 343.732 297.178 343.732 296.554C343.732 295.93 343.524 295.45 343.108 295.114C342.708 294.778 342.196 294.61 341.572 294.61C340.916 294.61 340.388 294.778 339.988 295.114C339.588 295.45 339.388 295.93 339.388 296.554C339.388 297.178 339.588 297.658 339.988 297.994C340.388 298.33 340.916 298.498 341.572 298.498ZM338.692 305.866C338.692 306.458 338.964 306.898 339.508 307.186C340.068 307.49 340.748 307.642 341.548 307.642C342.316 307.642 342.94 307.482 343.42 307.162C343.9 306.858 344.14 306.442 344.14 305.914C344.14 305.482 343.98 305.122 343.66 304.834C343.356 304.546 342.74 304.37 341.812 304.306C341.156 304.258 340.548 304.186 339.988 304.09C339.524 304.346 339.188 304.626 338.98 304.93C338.788 305.234 338.692 305.546 338.692 305.866ZM361.627 304.69C360.475 304.69 359.435 304.426 358.507 303.898C357.595 303.37 356.867 302.642 356.323 301.714C355.795 300.77 355.531 299.682 355.531 298.45C355.531 297.218 355.803 296.138 356.347 295.21C356.891 294.266 357.619 293.53 358.531 293.002C359.459 292.474 360.499 292.21 361.651 292.21C362.787 292.21 363.811 292.474 364.723 293.002C365.651 293.53 366.379 294.266 366.907 295.21C367.451 296.138 367.723 297.218 367.723 298.45C367.723 299.682 367.451 300.77 366.907 301.714C366.379 302.642 365.651 303.37 364.723 303.898C363.795 304.426 362.763 304.69 361.627 304.69ZM361.627 302.026C362.427 302.026 363.123 301.73 363.715 301.138C364.307 300.53 364.603 299.634 364.603 298.45C364.603 297.266 364.307 296.378 363.715 295.786C363.123 295.178 362.435 294.874 361.651 294.874C360.835 294.874 360.131 295.178 359.539 295.786C358.963 296.378 358.675 297.266 358.675 298.45C358.675 299.634 358.963 300.53 359.539 301.138C360.131 301.73 360.827 302.026 361.627 302.026ZM371.022 304.402V295.066H369.39V292.498H371.022V291.106C371.022 289.666 371.382 288.642 372.102 288.034C372.838 287.426 373.83 287.122 375.078 287.122H376.398V289.738H375.558C375.03 289.738 374.654 289.842 374.43 290.05C374.206 290.258 374.094 290.61 374.094 291.106V292.498H376.662V295.066H374.094V304.402H371.022ZM388.917 304.69C387.893 304.69 387.053 304.53 386.397 304.21C385.741 303.874 385.253 303.434 384.933 302.89C384.613 302.346 384.453 301.746 384.453 301.09C384.453 299.986 384.885 299.09 385.749 298.402C386.613 297.714 387.909 297.37 389.637 297.37H392.661V297.082C392.661 296.266 392.429 295.666 391.965 295.282C391.501 294.898 390.925 294.706 390.237 294.706C389.613 294.706 389.069 294.858 388.605 295.162C388.141 295.45 387.853 295.882 387.741 296.458H384.741C384.821 295.594 385.109 294.842 385.605 294.202C386.117 293.562 386.773 293.074 387.573 292.738C388.373 292.386 389.269 292.21 390.261 292.21C391.957 292.21 393.293 292.634 394.269 293.482C395.245 294.33 395.733 295.53 395.733 297.082V304.402H393.117L392.829 302.482C392.477 303.122 391.981 303.65 391.341 304.066C390.717 304.482 389.909 304.69 388.917 304.69ZM389.613 302.29C390.493 302.29 391.173 302.002 391.653 301.426C392.149 300.85 392.461 300.138 392.589 299.29H389.973C389.157 299.29 388.573 299.442 388.221 299.746C387.869 300.034 387.693 300.394 387.693 300.826C387.693 301.29 387.869 301.65 388.221 301.906C388.573 302.162 389.037 302.29 389.613 302.29ZM404.384 304.402V287.122H407.456V304.402H404.384ZM416.379 304.69C415.179 304.69 414.115 304.434 413.187 303.922C412.259 303.41 411.531 302.69 411.003 301.762C410.475 300.834 410.211 299.762 410.211 298.546C410.211 297.314 410.467 296.218 410.979 295.258C411.507 294.298 412.227 293.554 413.139 293.026C414.067 292.482 415.155 292.21 416.403 292.21C417.571 292.21 418.603 292.466 419.499 292.978C420.395 293.49 421.091 294.194 421.587 295.09C422.099 295.97 422.355 296.954 422.355 298.042C422.355 298.218 422.347 298.402 422.331 298.594C422.331 298.786 422.323 298.986 422.307 299.194H413.259C413.323 300.122 413.643 300.85 414.219 301.378C414.811 301.906 415.523 302.17 416.355 302.17C416.979 302.17 417.499 302.034 417.915 301.762C418.347 301.474 418.667 301.106 418.875 300.658H421.995C421.771 301.41 421.395 302.098 420.867 302.722C420.355 303.33 419.715 303.81 418.947 304.162C418.195 304.514 417.339 304.69 416.379 304.69ZM416.403 294.706C415.651 294.706 414.987 294.922 414.411 295.354C413.835 295.77 413.467 296.41 413.307 297.274H419.235C419.187 296.49 418.899 295.866 418.371 295.402C417.843 294.938 417.187 294.706 416.403 294.706ZM429.721 300.85C429.145 300.85 428.609 300.786 428.113 300.658L427.225 301.546C427.497 301.69 427.865 301.81 428.329 301.906C428.793 302.002 429.545 302.098 430.585 302.194C432.169 302.338 433.321 302.714 434.041 303.322C434.761 303.93 435.121 304.77 435.121 305.842C435.121 306.546 434.929 307.21 434.545 307.834C434.161 308.474 433.569 308.986 432.769 309.37C431.969 309.77 430.945 309.97 429.697 309.97C428.001 309.97 426.633 309.65 425.593 309.01C424.553 308.386 424.033 307.442 424.033 306.178C424.033 305.106 424.553 304.178 425.593 303.394C425.273 303.25 424.993 303.098 424.753 302.938C424.529 302.778 424.329 302.61 424.153 302.434V301.882L426.241 299.674C425.313 298.858 424.849 297.81 424.849 296.53C424.849 295.73 425.041 295.002 425.425 294.346C425.825 293.69 426.385 293.17 427.105 292.786C427.825 292.402 428.697 292.21 429.721 292.21C430.393 292.21 431.017 292.306 431.593 292.498H436.105V294.37L434.065 294.514C434.385 295.122 434.545 295.794 434.545 296.53C434.545 297.33 434.353 298.058 433.969 298.714C433.585 299.37 433.025 299.89 432.289 300.274C431.569 300.658 430.713 300.85 429.721 300.85ZM429.721 298.498C430.345 298.498 430.857 298.33 431.257 297.994C431.673 297.658 431.881 297.178 431.881 296.554C431.881 295.93 431.673 295.45 431.257 295.114C430.857 294.778 430.345 294.61 429.721 294.61C429.065 294.61 428.537 294.778 428.137 295.114C427.737 295.45 427.537 295.93 427.537 296.554C427.537 297.178 427.737 297.658 428.137 297.994C428.537 298.33 429.065 298.498 429.721 298.498ZM426.841 305.866C426.841 306.458 427.113 306.898 427.657 307.186C428.217 307.49 428.897 307.642 429.697 307.642C430.465 307.642 431.089 307.482 431.569 307.162C432.049 306.858 432.289 306.442 432.289 305.914C432.289 305.482 432.129 305.122 431.809 304.834C431.505 304.546 430.889 304.37 429.961 304.306C429.305 304.258 428.697 304.186 428.137 304.09C427.673 304.346 427.337 304.626 427.129 304.93C426.937 305.234 426.841 305.546 426.841 305.866ZM443.66 304.69C442.46 304.69 441.396 304.434 440.468 303.922C439.54 303.41 438.812 302.69 438.284 301.762C437.756 300.834 437.492 299.762 437.492 298.546C437.492 297.314 437.748 296.218 438.26 295.258C438.788 294.298 439.508 293.554 440.42 293.026C441.348 292.482 442.436 292.21 443.684 292.21C444.852 292.21 445.884 292.466 446.78 292.978C447.676 293.49 448.372 294.194 448.868 295.09C449.38 295.97 449.636 296.954 449.636 298.042C449.636 298.218 449.628 298.402 449.612 298.594C449.612 298.786 449.604 298.986 449.588 299.194H440.54C440.604 300.122 440.924 300.85 441.5 301.378C442.092 301.906 442.804 302.17 443.636 302.17C444.26 302.17 444.78 302.034 445.196 301.762C445.628 301.474 445.948 301.106 446.156 300.658H449.276C449.052 301.41 448.676 302.098 448.148 302.722C447.636 303.33 446.996 303.81 446.228 304.162C445.476 304.514 444.62 304.69 443.66 304.69ZM443.684 294.706C442.932 294.706 442.268 294.922 441.692 295.354C441.116 295.77 440.748 296.41 440.588 297.274H446.516C446.468 296.49 446.18 295.866 445.652 295.402C445.124 294.938 444.468 294.706 443.684 294.706ZM452.22 304.402V292.498H454.932L455.172 294.514C455.54 293.81 456.068 293.25 456.756 292.834C457.46 292.418 458.284 292.21 459.228 292.21C460.7 292.21 461.844 292.674 462.66 293.602C463.476 294.53 463.884 295.89 463.884 297.682V304.402H460.812V297.97C460.812 296.946 460.604 296.162 460.188 295.618C459.772 295.074 459.124 294.802 458.244 294.802C457.38 294.802 456.668 295.106 456.108 295.714C455.564 296.322 455.292 297.17 455.292 298.258V304.402H452.22ZM472.293 304.69C471.173 304.69 470.173 304.418 469.293 303.874C468.413 303.33 467.717 302.586 467.205 301.642C466.693 300.698 466.437 299.626 466.437 298.426C466.437 297.226 466.693 296.162 467.205 295.234C467.717 294.29 468.413 293.554 469.293 293.026C470.173 292.482 471.173 292.21 472.293 292.21C473.189 292.21 473.973 292.378 474.645 292.714C475.317 293.05 475.861 293.522 476.277 294.13V287.122H479.349V304.402H476.613L476.277 302.698C475.893 303.226 475.381 303.69 474.741 304.09C474.117 304.49 473.301 304.69 472.293 304.69ZM472.941 302.002C473.933 302.002 474.741 301.674 475.365 301.018C476.005 300.346 476.325 299.49 476.325 298.45C476.325 297.41 476.005 296.562 475.365 295.906C474.741 295.234 473.933 294.898 472.941 294.898C471.965 294.898 471.157 295.226 470.517 295.882C469.877 296.538 469.557 297.386 469.557 298.426C469.557 299.466 469.877 300.322 470.517 300.994C471.157 301.666 471.965 302.002 472.941 302.002ZM486.581 304.69C485.557 304.69 484.717 304.53 484.061 304.21C483.405 303.874 482.917 303.434 482.597 302.89C482.277 302.346 482.117 301.746 482.117 301.09C482.117 299.986 482.549 299.09 483.413 298.402C484.277 297.714 485.573 297.37 487.301 297.37H490.325V297.082C490.325 296.266 490.093 295.666 489.629 295.282C489.165 294.898 488.589 294.706 487.901 294.706C487.277 294.706 486.733 294.858 486.269 295.162C485.805 295.45 485.517 295.882 485.405 296.458H482.405C482.485 295.594 482.773 294.842 483.269 294.202C483.781 293.562 484.437 293.074 485.237 292.738C486.037 292.386 486.933 292.21 487.925 292.21C489.621 292.21 490.957 292.634 491.933 293.482C492.909 294.33 493.397 295.53 493.397 297.082V304.402H490.781L490.493 302.482C490.141 303.122 489.645 303.65 489.005 304.066C488.381 304.482 487.573 304.69 486.581 304.69ZM487.277 302.29C488.157 302.29 488.837 302.002 489.317 301.426C489.813 300.85 490.125 300.138 490.253 299.29H487.637C486.821 299.29 486.237 299.442 485.885 299.746C485.533 300.034 485.357 300.394 485.357 300.826C485.357 301.29 485.533 301.65 485.885 301.906C486.237 302.162 486.701 302.29 487.277 302.29ZM496.329 304.402V292.498H499.065L499.353 294.73C499.785 293.962 500.369 293.354 501.105 292.906C501.857 292.442 502.737 292.21 503.745 292.21V295.45H502.881C502.209 295.45 501.609 295.554 501.081 295.762C500.553 295.97 500.137 296.33 499.833 296.842C499.545 297.354 499.401 298.066 499.401 298.978V304.402H496.329ZM507.333 309.682L510.093 303.61H509.373L504.741 292.498H508.077L511.413 300.874L514.893 292.498H518.157L510.597 309.682H507.333ZM530.804 304.69C529.748 304.69 528.82 304.522 528.02 304.186C527.22 303.834 526.58 303.354 526.1 302.746C525.62 302.138 525.332 301.434 525.236 300.634H528.332C528.428 301.098 528.684 301.498 529.1 301.834C529.532 302.154 530.084 302.314 530.756 302.314C531.428 302.314 531.916 302.178 532.22 301.906C532.54 301.634 532.7 301.322 532.7 300.97C532.7 300.458 532.476 300.114 532.028 299.938C531.58 299.746 530.956 299.562 530.156 299.386C529.644 299.274 529.124 299.138 528.596 298.978C528.068 298.818 527.58 298.618 527.132 298.378C526.7 298.122 526.348 297.802 526.076 297.418C525.804 297.018 525.668 296.53 525.668 295.954C525.668 294.898 526.084 294.01 526.916 293.29C527.764 292.57 528.948 292.21 530.468 292.21C531.876 292.21 532.996 292.538 533.828 293.194C534.676 293.85 535.18 294.754 535.34 295.906H532.436C532.26 295.026 531.596 294.586 530.444 294.586C529.868 294.586 529.42 294.698 529.1 294.922C528.796 295.146 528.644 295.426 528.644 295.762C528.644 296.114 528.876 296.394 529.34 296.602C529.804 296.81 530.42 297.002 531.188 297.178C532.02 297.37 532.78 297.586 533.468 297.826C534.172 298.05 534.732 298.394 535.148 298.858C535.564 299.306 535.772 299.954 535.772 300.802C535.788 301.538 535.596 302.202 535.196 302.794C534.796 303.386 534.22 303.85 533.468 304.186C532.716 304.522 531.828 304.69 530.804 304.69ZM542.597 304.69C541.573 304.69 540.733 304.53 540.077 304.21C539.421 303.874 538.933 303.434 538.613 302.89C538.293 302.346 538.133 301.746 538.133 301.09C538.133 299.986 538.565 299.09 539.429 298.402C540.293 297.714 541.589 297.37 543.317 297.37H546.341V297.082C546.341 296.266 546.109 295.666 545.645 295.282C545.181 294.898 544.605 294.706 543.917 294.706C543.293 294.706 542.749 294.858 542.285 295.162C541.821 295.45 541.533 295.882 541.421 296.458H538.421C538.501 295.594 538.789 294.842 539.285 294.202C539.797 293.562 540.453 293.074 541.253 292.738C542.053 292.386 542.949 292.21 543.941 292.21C545.637 292.21 546.973 292.634 547.949 293.482C548.925 294.33 549.413 295.53 549.413 297.082V304.402H546.797L546.509 302.482C546.157 303.122 545.661 303.65 545.021 304.066C544.397 304.482 543.589 304.69 542.597 304.69ZM543.293 302.29C544.173 302.29 544.853 302.002 545.333 301.426C545.829 300.85 546.141 300.138 546.269 299.29H543.653C542.837 299.29 542.253 299.442 541.901 299.746C541.549 300.034 541.373 300.394 541.373 300.826C541.373 301.29 541.549 301.65 541.901 301.906C542.253 302.162 542.717 302.29 543.293 302.29ZM552.345 304.402V287.122H555.417V304.402H552.345ZM564.34 304.69C563.14 304.69 562.076 304.434 561.148 303.922C560.22 303.41 559.492 302.69 558.964 301.762C558.436 300.834 558.172 299.762 558.172 298.546C558.172 297.314 558.428 296.218 558.94 295.258C559.468 294.298 560.188 293.554 561.1 293.026C562.028 292.482 563.116 292.21 564.364 292.21C565.532 292.21 566.564 292.466 567.46 292.978C568.356 293.49 569.052 294.194 569.548 295.09C570.06 295.97 570.316 296.954 570.316 298.042C570.316 298.218 570.308 298.402 570.292 298.594C570.292 298.786 570.284 298.986 570.268 299.194H561.22C561.284 300.122 561.604 300.85 562.18 301.378C562.772 301.906 563.484 302.17 564.316 302.17C564.94 302.17 565.46 302.034 565.876 301.762C566.308 301.474 566.628 301.106 566.836 300.658H569.956C569.732 301.41 569.356 302.098 568.828 302.722C568.316 303.33 567.676 303.81 566.908 304.162C566.156 304.514 565.3 304.69 564.34 304.69ZM564.364 294.706C563.612 294.706 562.948 294.922 562.372 295.354C561.796 295.77 561.428 296.41 561.268 297.274H567.196C567.148 296.49 566.86 295.866 566.332 295.402C565.804 294.938 565.148 294.706 564.364 294.706ZM577.819 304.69C576.763 304.69 575.835 304.522 575.035 304.186C574.235 303.834 573.595 303.354 573.115 302.746C572.635 302.138 572.347 301.434 572.251 300.634H575.347C575.443 301.098 575.699 301.498 576.115 301.834C576.547 302.154 577.099 302.314 577.771 302.314C578.443 302.314 578.931 302.178 579.235 301.906C579.555 301.634 579.715 301.322 579.715 300.97C579.715 300.458 579.491 300.114 579.043 299.938C578.595 299.746 577.971 299.562 577.171 299.386C576.659 299.274 576.139 299.138 575.611 298.978C575.083 298.818 574.595 298.618 574.147 298.378C573.715 298.122 573.363 297.802 573.091 297.418C572.819 297.018 572.683 296.53 572.683 295.954C572.683 294.898 573.099 294.01 573.931 293.29C574.779 292.57 575.963 292.21 577.483 292.21C578.891 292.21 580.011 292.538 580.843 293.194C581.691 293.85 582.195 294.754 582.355 295.906H579.451C579.275 295.026 578.611 294.586 577.459 294.586C576.883 294.586 576.435 294.698 576.115 294.922C575.811 295.146 575.659 295.426 575.659 295.762C575.659 296.114 575.891 296.394 576.355 296.602C576.819 296.81 577.435 297.002 578.203 297.178C579.035 297.37 579.795 297.586 580.483 297.826C581.187 298.05 581.747 298.394 582.163 298.858C582.579 299.306 582.787 299.954 582.787 300.802C582.803 301.538 582.611 302.202 582.211 302.794C581.811 303.386 581.235 303.85 580.483 304.186C579.731 304.522 578.843 304.69 577.819 304.69ZM591.227 309.682V292.498H593.963L594.299 294.202C594.683 293.674 595.187 293.21 595.811 292.81C596.451 292.41 597.275 292.21 598.283 292.21C599.403 292.21 600.403 292.482 601.283 293.026C602.163 293.57 602.859 294.314 603.371 295.258C603.883 296.202 604.139 297.274 604.139 298.474C604.139 299.674 603.883 300.746 603.371 301.69C602.859 302.618 602.163 303.354 601.283 303.898C600.403 304.426 599.403 304.69 598.283 304.69C597.387 304.69 596.603 304.522 595.931 304.186C595.259 303.85 594.715 303.378 594.299 302.77V309.682H591.227ZM597.635 302.002C598.611 302.002 599.419 301.674 600.059 301.018C600.699 300.362 601.019 299.514 601.019 298.474C601.019 297.434 600.699 296.578 600.059 295.906C599.419 295.234 598.611 294.898 597.635 294.898C596.643 294.898 595.827 295.234 595.187 295.906C594.563 296.562 594.251 297.41 594.251 298.45C594.251 299.49 594.563 300.346 595.187 301.018C595.827 301.674 596.643 302.002 597.635 302.002ZM608.54 290.65C607.98 290.65 607.516 290.482 607.148 290.146C606.796 289.81 606.62 289.386 606.62 288.874C606.62 288.362 606.796 287.946 607.148 287.626C607.516 287.29 607.98 287.122 608.54 287.122C609.1 287.122 609.556 287.29 609.908 287.626C610.276 287.946 610.46 288.362 610.46 288.874C610.46 289.386 610.276 289.81 609.908 290.146C609.556 290.482 609.1 290.65 608.54 290.65ZM607.004 304.402V292.498H610.076V304.402H607.004ZM613.282 309.682V292.498H616.018L616.354 294.202C616.738 293.674 617.242 293.21 617.866 292.81C618.506 292.41 619.33 292.21 620.338 292.21C621.458 292.21 622.458 292.482 623.338 293.026C624.218 293.57 624.914 294.314 625.426 295.258C625.938 296.202 626.194 297.274 626.194 298.474C626.194 299.674 625.938 300.746 625.426 301.69C624.914 302.618 624.218 303.354 623.338 303.898C622.458 304.426 621.458 304.69 620.338 304.69C619.442 304.69 618.658 304.522 617.986 304.186C617.314 303.85 616.77 303.378 616.354 302.77V309.682H613.282ZM619.69 302.002C620.666 302.002 621.474 301.674 622.114 301.018C622.754 300.362 623.074 299.514 623.074 298.474C623.074 297.434 622.754 296.578 622.114 295.906C621.474 295.234 620.666 294.898 619.69 294.898C618.698 294.898 617.882 295.234 617.242 295.906C616.618 296.562 616.306 297.41 616.306 298.45C616.306 299.49 616.618 300.346 617.242 301.018C617.882 301.674 618.698 302.002 619.69 302.002ZM634.722 304.69C633.522 304.69 632.458 304.434 631.53 303.922C630.602 303.41 629.874 302.69 629.346 301.762C628.818 300.834 628.554 299.762 628.554 298.546C628.554 297.314 628.81 296.218 629.322 295.258C629.85 294.298 630.57 293.554 631.482 293.026C632.41 292.482 633.498 292.21 634.746 292.21C635.914 292.21 636.946 292.466 637.842 292.978C638.738 293.49 639.434 294.194 639.93 295.09C640.442 295.97 640.698 296.954 640.698 298.042C640.698 298.218 640.69 298.402 640.674 298.594C640.674 298.786 640.666 298.986 640.65 299.194H631.602C631.666 300.122 631.986 300.85 632.562 301.378C633.154 301.906 633.866 302.17 634.698 302.17C635.322 302.17 635.842 302.034 636.258 301.762C636.69 301.474 637.01 301.106 637.218 300.658H640.338C640.114 301.41 639.738 302.098 639.21 302.722C638.698 303.33 638.058 303.81 637.29 304.162C636.538 304.514 635.682 304.69 634.722 304.69ZM634.746 294.706C633.994 294.706 633.33 294.922 632.754 295.354C632.178 295.77 631.81 296.41 631.65 297.274H637.578C637.53 296.49 637.242 295.866 636.714 295.402C636.186 294.938 635.53 294.706 634.746 294.706ZM643.282 304.402V287.122H646.354V304.402H643.282ZM651.149 290.65C650.589 290.65 650.125 290.482 649.757 290.146C649.405 289.81 649.229 289.386 649.229 288.874C649.229 288.362 649.405 287.946 649.757 287.626C650.125 287.29 650.589 287.122 651.149 287.122C651.709 287.122 652.165 287.29 652.517 287.626C652.885 287.946 653.069 288.362 653.069 288.874C653.069 289.386 652.885 289.81 652.517 290.146C652.165 290.482 651.709 290.65 651.149 290.65ZM649.613 304.402V292.498H652.685V304.402H649.613ZM655.892 304.402V292.498H658.604L658.844 294.514C659.212 293.81 659.74 293.25 660.428 292.834C661.132 292.418 661.956 292.21 662.9 292.21C664.372 292.21 665.516 292.674 666.332 293.602C667.148 294.53 667.556 295.89 667.556 297.682V304.402H664.484V297.97C664.484 296.946 664.276 296.162 663.86 295.618C663.444 295.074 662.796 294.802 661.916 294.802C661.052 294.802 660.34 295.106 659.78 295.714C659.236 296.322 658.964 297.17 658.964 298.258V304.402H655.892ZM676.277 304.69C675.077 304.69 674.013 304.434 673.085 303.922C672.157 303.41 671.429 302.69 670.901 301.762C670.373 300.834 670.109 299.762 670.109 298.546C670.109 297.314 670.365 296.218 670.877 295.258C671.405 294.298 672.125 293.554 673.037 293.026C673.965 292.482 675.053 292.21 676.301 292.21C677.469 292.21 678.501 292.466 679.397 292.978C680.293 293.49 680.989 294.194 681.485 295.09C681.997 295.97 682.253 296.954 682.253 298.042C682.253 298.218 682.245 298.402 682.229 298.594C682.229 298.786 682.221 298.986 682.205 299.194H673.157C673.221 300.122 673.541 300.85 674.117 301.378C674.709 301.906 675.421 302.17 676.253 302.17C676.877 302.17 677.397 302.034 677.813 301.762C678.245 301.474 678.565 301.106 678.773 300.658H681.893C681.669 301.41 681.293 302.098 680.765 302.722C680.253 303.33 679.613 303.81 678.845 304.162C678.093 304.514 677.237 304.69 676.277 304.69ZM676.301 294.706C675.549 294.706 674.885 294.922 674.309 295.354C673.733 295.77 673.365 296.41 673.205 297.274H679.133C679.085 296.49 678.797 295.866 678.269 295.402C677.741 294.938 677.085 294.706 676.301 294.706Z" fill="white"/>
<path d="M284.039 358.42L280.637 345.802H282.689L285.191 356.242L288.071 345.802H290.177L292.967 356.242L295.469 345.802H297.521L294.065 358.402H291.833L289.079 348.52L286.235 358.402L284.039 358.42ZM299.2 358.402V345.442H301.108V350.914C301.408 350.398 301.822 349.996 302.35 349.708C302.89 349.408 303.484 349.258 304.132 349.258C305.2 349.258 306.04 349.594 306.652 350.266C307.264 350.938 307.57 351.94 307.57 353.272V358.402H305.68V353.47C305.68 351.742 304.99 350.878 303.61 350.878C302.89 350.878 302.29 351.13 301.81 351.634C301.342 352.138 301.108 352.858 301.108 353.794V358.402H299.2ZM313.993 358.618C313.117 358.618 312.337 358.426 311.653 358.042C310.981 357.646 310.453 357.1 310.069 356.404C309.685 355.708 309.493 354.898 309.493 353.974C309.493 353.038 309.679 352.216 310.051 351.508C310.435 350.8 310.963 350.248 311.635 349.852C312.319 349.456 313.111 349.258 314.011 349.258C314.887 349.258 315.649 349.456 316.297 349.852C316.945 350.236 317.449 350.752 317.809 351.4C318.169 352.048 318.349 352.762 318.349 353.542C318.349 353.662 318.343 353.794 318.331 353.938C318.331 354.07 318.325 354.22 318.313 354.388H311.365C311.425 355.252 311.707 355.912 312.211 356.368C312.727 356.812 313.321 357.034 313.993 357.034C314.533 357.034 314.983 356.914 315.343 356.674C315.715 356.422 315.991 356.086 316.171 355.666H318.079C317.839 356.506 317.359 357.208 316.639 357.772C315.931 358.336 315.049 358.618 313.993 358.618ZM313.993 350.824C313.357 350.824 312.793 351.016 312.301 351.4C311.809 351.772 311.509 352.336 311.401 353.092H316.441C316.405 352.396 316.159 351.844 315.703 351.436C315.247 351.028 314.677 350.824 313.993 350.824ZM320.329 358.402V349.474H322.021L322.165 351.04C322.441 350.488 322.843 350.056 323.371 349.744C323.911 349.42 324.529 349.258 325.225 349.258C326.305 349.258 327.151 349.594 327.763 350.266C328.387 350.938 328.699 351.94 328.699 353.272V358.402H326.809V353.47C326.809 351.742 326.101 350.878 324.685 350.878C323.977 350.878 323.389 351.13 322.921 351.634C322.465 352.138 322.237 352.858 322.237 353.794V358.402H320.329ZM336.525 362.362L338.667 357.664H338.145L334.617 349.474H336.687L339.423 356.08L342.285 349.474H344.301L338.541 362.362H336.525ZM349.237 358.618C348.385 358.618 347.617 358.426 346.933 358.042C346.261 357.646 345.727 357.1 345.331 356.404C344.935 355.696 344.737 354.874 344.737 353.938C344.737 353.002 344.935 352.186 345.331 351.49C345.739 350.782 346.285 350.236 346.969 349.852C347.653 349.456 348.415 349.258 349.255 349.258C350.107 349.258 350.869 349.456 351.541 349.852C352.225 350.236 352.765 350.782 353.161 351.49C353.569 352.186 353.773 353.002 353.773 353.938C353.773 354.874 353.569 355.696 353.161 356.404C352.765 357.1 352.225 357.646 351.541 358.042C350.857 358.426 350.089 358.618 349.237 358.618ZM349.237 356.98C349.693 356.98 350.113 356.866 350.497 356.638C350.893 356.41 351.211 356.074 351.451 355.63C351.691 355.174 351.811 354.61 351.811 353.938C351.811 353.266 351.691 352.708 351.451 352.264C351.223 351.808 350.911 351.466 350.515 351.238C350.131 351.01 349.711 350.896 349.255 350.896C348.799 350.896 348.373 351.01 347.977 351.238C347.593 351.466 347.281 351.808 347.041 352.264C346.801 352.708 346.681 353.266 346.681 353.938C346.681 354.61 346.801 355.174 347.041 355.63C347.281 356.074 347.593 356.41 347.977 356.638C348.361 356.866 348.781 356.98 349.237 356.98ZM359.13 358.618C358.05 358.618 357.198 358.282 356.574 357.61C355.962 356.938 355.656 355.936 355.656 354.604V349.474H357.564V354.406C357.564 356.134 358.272 356.998 359.688 356.998C360.396 356.998 360.978 356.746 361.434 356.242C361.89 355.738 362.118 355.018 362.118 354.082V349.474H364.026V358.402H362.334L362.19 356.836C361.914 357.388 361.506 357.826 360.966 358.15C360.438 358.462 359.826 358.618 359.13 358.618ZM370.989 358.402V345.442H372.897V350.914C373.197 350.398 373.611 349.996 374.139 349.708C374.679 349.408 375.273 349.258 375.921 349.258C376.989 349.258 377.829 349.594 378.441 350.266C379.053 350.938 379.359 351.94 379.359 353.272V358.402H377.469V353.47C377.469 351.742 376.779 350.878 375.399 350.878C374.679 350.878 374.079 351.13 373.599 351.634C373.131 352.138 372.897 352.858 372.897 353.794V358.402H370.989ZM384.63 358.618C383.874 358.618 383.25 358.492 382.758 358.24C382.266 357.988 381.9 357.658 381.66 357.25C381.42 356.83 381.3 356.374 381.3 355.882C381.3 355.018 381.636 354.334 382.308 353.83C382.98 353.326 383.94 353.074 385.188 353.074H387.528V352.912C387.528 352.216 387.336 351.694 386.952 351.346C386.58 350.998 386.094 350.824 385.494 350.824C384.966 350.824 384.504 350.956 384.108 351.22C383.724 351.472 383.49 351.85 383.406 352.354H381.498C381.558 351.706 381.774 351.154 382.146 350.698C382.53 350.23 383.01 349.876 383.586 349.636C384.174 349.384 384.816 349.258 385.512 349.258C386.76 349.258 387.726 349.588 388.41 350.248C389.094 350.896 389.436 351.784 389.436 352.912V358.402H387.78L387.618 356.872C387.366 357.364 387 357.778 386.52 358.114C386.04 358.45 385.41 358.618 384.63 358.618ZM385.008 357.07C385.524 357.07 385.956 356.95 386.304 356.71C386.664 356.458 386.94 356.128 387.132 355.72C387.336 355.312 387.462 354.862 387.51 354.37H385.386C384.63 354.37 384.09 354.502 383.766 354.766C383.454 355.03 383.298 355.36 383.298 355.756C383.298 356.164 383.448 356.488 383.748 356.728C384.06 356.956 384.48 357.07 385.008 357.07ZM393.864 358.402L390.516 349.474H392.514L394.998 356.584L397.482 349.474H399.462L396.132 358.402H393.864ZM404.749 358.618C403.873 358.618 403.093 358.426 402.409 358.042C401.737 357.646 401.209 357.1 400.825 356.404C400.441 355.708 400.249 354.898 400.249 353.974C400.249 353.038 400.435 352.216 400.807 351.508C401.191 350.8 401.719 350.248 402.391 349.852C403.075 349.456 403.867 349.258 404.767 349.258C405.643 349.258 406.405 349.456 407.053 349.852C407.701 350.236 408.205 350.752 408.565 351.4C408.925 352.048 409.105 352.762 409.105 353.542C409.105 353.662 409.099 353.794 409.087 353.938C409.087 354.07 409.081 354.22 409.069 354.388H402.121C402.181 355.252 402.463 355.912 402.967 356.368C403.483 356.812 404.077 357.034 404.749 357.034C405.289 357.034 405.739 356.914 406.099 356.674C406.471 356.422 406.747 356.086 406.927 355.666H408.835C408.595 356.506 408.115 357.208 407.395 357.772C406.687 358.336 405.805 358.618 404.749 358.618ZM404.749 350.824C404.113 350.824 403.549 351.016 403.057 351.4C402.565 351.772 402.265 352.336 402.157 353.092H407.197C407.161 352.396 406.915 351.844 406.459 351.436C406.003 351.028 405.433 350.824 404.749 350.824ZM416.7 347.782C416.34 347.782 416.04 347.674 415.8 347.458C415.572 347.23 415.458 346.948 415.458 346.612C415.458 346.276 415.572 346 415.8 345.784C416.04 345.556 416.34 345.442 416.7 345.442C417.06 345.442 417.354 345.556 417.582 345.784C417.822 346 417.942 346.276 417.942 346.612C417.942 346.948 417.822 347.23 417.582 347.458C417.354 347.674 417.06 347.782 416.7 347.782ZM415.746 358.402V349.474H417.654V358.402H415.746ZM420.172 358.402V349.474H421.864L422.008 351.04C422.284 350.488 422.686 350.056 423.214 349.744C423.754 349.42 424.372 349.258 425.068 349.258C426.148 349.258 426.994 349.594 427.606 350.266C428.23 350.938 428.542 351.94 428.542 353.272V358.402H426.652V353.47C426.652 351.742 425.944 350.878 424.528 350.878C423.82 350.878 423.232 351.13 422.764 351.634C422.308 352.138 422.08 352.858 422.08 353.794V358.402H420.172ZM435.811 358.618C435.115 358.618 434.497 358.48 433.957 358.204C433.429 357.928 433.009 357.538 432.697 357.034L432.499 358.402H430.789V345.442H432.697V350.86C432.985 350.44 433.381 350.068 433.885 349.744C434.389 349.42 435.037 349.258 435.829 349.258C436.693 349.258 437.455 349.462 438.115 349.87C438.775 350.278 439.291 350.836 439.663 351.544C440.047 352.252 440.239 353.056 440.239 353.956C440.239 354.856 440.047 355.66 439.663 356.368C439.291 357.064 438.775 357.616 438.115 358.024C437.455 358.42 436.687 358.618 435.811 358.618ZM435.487 356.962C436.303 356.962 436.975 356.686 437.503 356.134C438.031 355.57 438.295 354.838 438.295 353.938C438.295 353.35 438.175 352.828 437.935 352.372C437.695 351.916 437.365 351.562 436.945 351.31C436.525 351.046 436.039 350.914 435.487 350.914C434.671 350.914 433.999 351.196 433.471 351.76C432.955 352.324 432.697 353.05 432.697 353.938C432.697 354.838 432.955 355.57 433.471 356.134C433.999 356.686 434.671 356.962 435.487 356.962ZM446.479 358.618C445.627 358.618 444.859 358.426 444.175 358.042C443.503 357.646 442.969 357.1 442.573 356.404C442.177 355.696 441.979 354.874 441.979 353.938C441.979 353.002 442.177 352.186 442.573 351.49C442.981 350.782 443.527 350.236 444.211 349.852C444.895 349.456 445.657 349.258 446.497 349.258C447.349 349.258 448.111 349.456 448.783 349.852C449.467 350.236 450.007 350.782 450.403 351.49C450.811 352.186 451.015 353.002 451.015 353.938C451.015 354.874 450.811 355.696 450.403 356.404C450.007 357.1 449.467 357.646 448.783 358.042C448.099 358.426 447.331 358.618 446.479 358.618ZM446.479 356.98C446.935 356.98 447.355 356.866 447.739 356.638C448.135 356.41 448.453 356.074 448.693 355.63C448.933 355.174 449.053 354.61 449.053 353.938C449.053 353.266 448.933 352.708 448.693 352.264C448.465 351.808 448.153 351.466 447.757 351.238C447.373 351.01 446.953 350.896 446.497 350.896C446.041 350.896 445.615 351.01 445.219 351.238C444.835 351.466 444.523 351.808 444.283 352.264C444.043 352.708 443.923 353.266 443.923 353.938C443.923 354.61 444.043 355.174 444.283 355.63C444.523 356.074 444.835 356.41 445.219 356.638C445.603 356.866 446.023 356.98 446.479 356.98ZM456.373 358.618C455.293 358.618 454.441 358.282 453.817 357.61C453.205 356.938 452.899 355.936 452.899 354.604V349.474H454.807V354.406C454.807 356.134 455.515 356.998 456.931 356.998C457.639 356.998 458.221 356.746 458.677 356.242C459.133 355.738 459.361 355.018 459.361 354.082V349.474H461.269V358.402H459.577L459.433 356.836C459.157 357.388 458.749 357.826 458.209 358.15C457.681 358.462 457.069 358.618 456.373 358.618ZM463.696 358.402V349.474H465.388L465.532 351.04C465.808 350.488 466.21 350.056 466.738 349.744C467.278 349.42 467.896 349.258 468.592 349.258C469.672 349.258 470.518 349.594 471.13 350.266C471.754 350.938 472.066 351.94 472.066 353.272V358.402H470.176V353.47C470.176 351.742 469.468 350.878 468.052 350.878C467.344 350.878 466.756 351.13 466.288 351.634C465.832 352.138 465.604 352.858 465.604 353.794V358.402H463.696ZM478.381 358.618C477.517 358.618 476.755 358.414 476.095 358.006C475.435 357.598 474.919 357.04 474.547 356.332C474.175 355.624 473.989 354.82 473.989 353.92C473.989 353.02 474.175 352.222 474.547 351.526C474.919 350.818 475.435 350.266 476.095 349.87C476.767 349.462 477.535 349.258 478.399 349.258C479.107 349.258 479.725 349.396 480.253 349.672C480.793 349.948 481.213 350.338 481.513 350.842V345.442H483.421V358.402H481.711L481.513 357.016C481.225 357.436 480.829 357.808 480.325 358.132C479.821 358.456 479.173 358.618 478.381 358.618ZM478.723 356.962C479.539 356.962 480.205 356.68 480.721 356.116C481.249 355.552 481.513 354.826 481.513 353.938C481.513 353.038 481.249 352.312 480.721 351.76C480.205 351.196 479.539 350.914 478.723 350.914C477.907 350.914 477.235 351.196 476.707 351.76C476.179 352.312 475.915 353.038 475.915 353.938C475.915 354.526 476.035 355.048 476.275 355.504C476.515 355.96 476.845 356.32 477.265 356.584C477.697 356.836 478.183 356.962 478.723 356.962ZM490.434 358.402V345.802H498.444V347.35H492.342V351.274H497.904V352.786H492.342V356.854H498.444V358.402H490.434ZM500.465 353.974V352.372H507.791V353.974H500.465ZM509.997 358.402V349.474H511.689L511.851 350.734C512.139 350.278 512.517 349.918 512.985 349.654C513.465 349.39 514.017 349.258 514.641 349.258C516.057 349.258 517.041 349.816 517.593 350.932C517.917 350.416 518.349 350.008 518.889 349.708C519.441 349.408 520.035 349.258 520.671 349.258C521.787 349.258 522.663 349.594 523.299 350.266C523.935 350.938 524.253 351.94 524.253 353.272V358.402H522.345V353.47C522.345 351.742 521.685 350.878 520.365 350.878C519.693 350.878 519.141 351.13 518.709 351.634C518.289 352.138 518.079 352.858 518.079 353.794V358.402H516.171V353.47C516.171 351.742 515.505 350.878 514.173 350.878C513.513 350.878 512.967 351.13 512.535 351.634C512.115 352.138 511.905 352.858 511.905 353.794V358.402H509.997ZM529.509 358.618C528.753 358.618 528.129 358.492 527.637 358.24C527.145 357.988 526.779 357.658 526.539 357.25C526.299 356.83 526.179 356.374 526.179 355.882C526.179 355.018 526.515 354.334 527.187 353.83C527.859 353.326 528.819 353.074 530.067 353.074H532.407V352.912C532.407 352.216 532.215 351.694 531.831 351.346C531.459 350.998 530.973 350.824 530.373 350.824C529.845 350.824 529.383 350.956 528.987 351.22C528.603 351.472 528.369 351.85 528.285 352.354H526.377C526.437 351.706 526.653 351.154 527.025 350.698C527.409 350.23 527.889 349.876 528.465 349.636C529.053 349.384 529.695 349.258 530.391 349.258C531.639 349.258 532.605 349.588 533.289 350.248C533.973 350.896 534.315 351.784 534.315 352.912V358.402H532.659L532.497 356.872C532.245 357.364 531.879 357.778 531.399 358.114C530.919 358.45 530.289 358.618 529.509 358.618ZM529.887 357.07C530.403 357.07 530.835 356.95 531.183 356.71C531.543 356.458 531.819 356.128 532.011 355.72C532.215 355.312 532.341 354.862 532.389 354.37H530.265C529.509 354.37 528.969 354.502 528.645 354.766C528.333 355.03 528.177 355.36 528.177 355.756C528.177 356.164 528.327 356.488 528.627 356.728C528.939 356.956 529.359 357.07 529.887 357.07ZM537.619 347.782C537.259 347.782 536.959 347.674 536.719 347.458C536.491 347.23 536.377 346.948 536.377 346.612C536.377 346.276 536.491 346 536.719 345.784C536.959 345.556 537.259 345.442 537.619 345.442C537.979 345.442 538.273 345.556 538.501 345.784C538.741 346 538.861 346.276 538.861 346.612C538.861 346.948 538.741 347.23 538.501 347.458C538.273 347.674 537.979 347.782 537.619 347.782ZM536.665 358.402V349.474H538.573V358.402H536.665ZM541.092 358.402V345.442H543V358.402H541.092ZM548.98 358.618C547.852 358.618 546.922 358.342 546.19 357.79C545.458 357.238 545.038 356.506 544.93 355.594H546.856C546.952 356.002 547.18 356.356 547.54 356.656C547.9 356.944 548.374 357.088 548.962 357.088C549.538 357.088 549.958 356.968 550.222 356.728C550.486 356.488 550.618 356.212 550.618 355.9C550.618 355.444 550.432 355.138 550.06 354.982C549.7 354.814 549.196 354.664 548.548 354.532C548.044 354.424 547.54 354.28 547.036 354.1C546.544 353.92 546.13 353.668 545.794 353.344C545.47 353.008 545.308 352.558 545.308 351.994C545.308 351.214 545.608 350.566 546.208 350.05C546.808 349.522 547.648 349.258 548.728 349.258C549.724 349.258 550.528 349.498 551.14 349.978C551.764 350.458 552.13 351.136 552.238 352.012H550.402C550.342 351.628 550.162 351.328 549.862 351.112C549.574 350.896 549.184 350.788 548.692 350.788C548.212 350.788 547.84 350.89 547.576 351.094C547.312 351.286 547.18 351.538 547.18 351.85C547.18 352.162 547.36 352.408 547.72 352.588C548.092 352.768 548.578 352.93 549.178 353.074C549.778 353.206 550.33 353.362 550.834 353.542C551.35 353.71 551.764 353.962 552.076 354.298C552.388 354.634 552.544 355.126 552.544 355.774C552.556 356.59 552.238 357.268 551.59 357.808C550.954 358.348 550.084 358.618 548.98 358.618ZM333.607 389.362L335.749 384.664H335.227L331.699 376.474H333.769L336.505 383.08L339.367 376.474H341.383L335.623 389.362H333.607ZM346.319 385.618C345.467 385.618 344.699 385.426 344.015 385.042C343.343 384.646 342.809 384.1 342.413 383.404C342.017 382.696 341.819 381.874 341.819 380.938C341.819 380.002 342.017 379.186 342.413 378.49C342.821 377.782 343.367 377.236 344.051 376.852C344.735 376.456 345.497 376.258 346.337 376.258C347.189 376.258 347.951 376.456 348.623 376.852C349.307 377.236 349.847 377.782 350.243 378.49C350.651 379.186 350.855 380.002 350.855 380.938C350.855 381.874 350.651 382.696 350.243 383.404C349.847 384.1 349.307 384.646 348.623 385.042C347.939 385.426 347.171 385.618 346.319 385.618ZM346.319 383.98C346.775 383.98 347.195 383.866 347.579 383.638C347.975 383.41 348.293 383.074 348.533 382.63C348.773 382.174 348.893 381.61 348.893 380.938C348.893 380.266 348.773 379.708 348.533 379.264C348.305 378.808 347.993 378.466 347.597 378.238C347.213 378.01 346.793 377.896 346.337 377.896C345.881 377.896 345.455 378.01 345.059 378.238C344.675 378.466 344.363 378.808 344.123 379.264C343.883 379.708 343.763 380.266 343.763 380.938C343.763 381.61 343.883 382.174 344.123 382.63C344.363 383.074 344.675 383.41 345.059 383.638C345.443 383.866 345.863 383.98 346.319 383.98ZM356.212 385.618C355.132 385.618 354.28 385.282 353.656 384.61C353.044 383.938 352.738 382.936 352.738 381.604V376.474H354.646V381.406C354.646 383.134 355.354 383.998 356.77 383.998C357.478 383.998 358.06 383.746 358.516 383.242C358.972 382.738 359.2 382.018 359.2 381.082V376.474H361.108V385.402H359.416L359.272 383.836C358.996 384.388 358.588 384.826 358.048 385.15C357.52 385.462 356.908 385.618 356.212 385.618ZM362.996 377.032L364.004 372.802H366.074L364.328 377.032H362.996ZM367.842 385.402V372.442H369.75V385.402H367.842ZM372.166 385.402V372.442H374.074V385.402H372.166ZM384.59 385.618C383.462 385.618 382.532 385.342 381.8 384.79C381.068 384.238 380.648 383.506 380.54 382.594H382.466C382.562 383.002 382.79 383.356 383.15 383.656C383.51 383.944 383.984 384.088 384.572 384.088C385.148 384.088 385.568 383.968 385.832 383.728C386.096 383.488 386.228 383.212 386.228 382.9C386.228 382.444 386.042 382.138 385.67 381.982C385.31 381.814 384.806 381.664 384.158 381.532C383.654 381.424 383.15 381.28 382.646 381.1C382.154 380.92 381.74 380.668 381.404 380.344C381.08 380.008 380.918 379.558 380.918 378.994C380.918 378.214 381.218 377.566 381.818 377.05C382.418 376.522 383.258 376.258 384.338 376.258C385.334 376.258 386.138 376.498 386.75 376.978C387.374 377.458 387.74 378.136 387.848 379.012H386.012C385.952 378.628 385.772 378.328 385.472 378.112C385.184 377.896 384.794 377.788 384.302 377.788C383.822 377.788 383.45 377.89 383.186 378.094C382.922 378.286 382.79 378.538 382.79 378.85C382.79 379.162 382.97 379.408 383.33 379.588C383.702 379.768 384.188 379.93 384.788 380.074C385.388 380.206 385.94 380.362 386.444 380.542C386.96 380.71 387.374 380.962 387.686 381.298C387.998 381.634 388.154 382.126 388.154 382.774C388.166 383.59 387.848 384.268 387.2 384.808C386.564 385.348 385.694 385.618 384.59 385.618ZM394.413 385.618C393.537 385.618 392.757 385.426 392.073 385.042C391.401 384.646 390.873 384.1 390.489 383.404C390.105 382.708 389.913 381.898 389.913 380.974C389.913 380.038 390.099 379.216 390.471 378.508C390.855 377.8 391.383 377.248 392.055 376.852C392.739 376.456 393.531 376.258 394.431 376.258C395.307 376.258 396.069 376.456 396.717 376.852C397.365 377.236 397.869 377.752 398.229 378.4C398.589 379.048 398.769 379.762 398.769 380.542C398.769 380.662 398.763 380.794 398.751 380.938C398.751 381.07 398.745 381.22 398.733 381.388H391.785C391.845 382.252 392.127 382.912 392.631 383.368C393.147 383.812 393.741 384.034 394.413 384.034C394.953 384.034 395.403 383.914 395.763 383.674C396.135 383.422 396.411 383.086 396.591 382.666H398.499C398.259 383.506 397.779 384.208 397.059 384.772C396.351 385.336 395.469 385.618 394.413 385.618ZM394.413 377.824C393.777 377.824 393.213 378.016 392.721 378.4C392.229 378.772 391.929 379.336 391.821 380.092H396.861C396.825 379.396 396.579 378.844 396.123 378.436C395.667 378.028 395.097 377.824 394.413 377.824ZM404.924 385.618C404.048 385.618 403.268 385.426 402.584 385.042C401.912 384.646 401.384 384.1 401 383.404C400.616 382.708 400.424 381.898 400.424 380.974C400.424 380.038 400.61 379.216 400.982 378.508C401.366 377.8 401.894 377.248 402.566 376.852C403.25 376.456 404.042 376.258 404.942 376.258C405.818 376.258 406.58 376.456 407.228 376.852C407.876 377.236 408.38 377.752 408.74 378.4C409.1 379.048 409.28 379.762 409.28 380.542C409.28 380.662 409.274 380.794 409.262 380.938C409.262 381.07 409.256 381.22 409.244 381.388H402.296C402.356 382.252 402.638 382.912 403.142 383.368C403.658 383.812 404.252 384.034 404.924 384.034C405.464 384.034 405.914 383.914 406.274 383.674C406.646 383.422 406.922 383.086 407.102 382.666H409.01C408.77 383.506 408.29 384.208 407.57 384.772C406.862 385.336 405.98 385.618 404.924 385.618ZM404.924 377.824C404.288 377.824 403.724 378.016 403.232 378.4C402.74 378.772 402.44 379.336 402.332 380.092H407.372C407.336 379.396 407.09 378.844 406.634 378.436C406.178 378.028 405.608 377.824 404.924 377.824ZM419.539 385.402C418.663 385.402 417.967 385.192 417.451 384.772C416.935 384.34 416.677 383.578 416.677 382.486V378.076H415.147V376.474H416.677L416.911 374.206H418.585V376.474H421.105V378.076H418.585V382.486C418.585 382.978 418.687 383.32 418.891 383.512C419.107 383.692 419.473 383.782 419.989 383.782H421.015V385.402H419.539ZM423.073 385.402V372.442H424.981V377.914C425.281 377.398 425.695 376.996 426.223 376.708C426.763 376.408 427.357 376.258 428.005 376.258C429.073 376.258 429.913 376.594 430.525 377.266C431.137 377.938 431.443 378.94 431.443 380.272V385.402H429.553V380.47C429.553 378.742 428.863 377.878 427.483 377.878C426.763 377.878 426.163 378.13 425.683 378.634C425.215 379.138 424.981 379.858 424.981 380.794V385.402H423.073ZM437.866 385.618C436.99 385.618 436.21 385.426 435.526 385.042C434.854 384.646 434.326 384.1 433.942 383.404C433.558 382.708 433.366 381.898 433.366 380.974C433.366 380.038 433.552 379.216 433.924 378.508C434.308 377.8 434.836 377.248 435.508 376.852C436.192 376.456 436.984 376.258 437.884 376.258C438.76 376.258 439.522 376.456 440.17 376.852C440.818 377.236 441.322 377.752 441.682 378.4C442.042 379.048 442.222 379.762 442.222 380.542C442.222 380.662 442.216 380.794 442.204 380.938C442.204 381.07 442.198 381.22 442.186 381.388H435.238C435.298 382.252 435.58 382.912 436.084 383.368C436.6 383.812 437.194 384.034 437.866 384.034C438.406 384.034 438.856 383.914 439.216 383.674C439.588 383.422 439.864 383.086 440.044 382.666H441.952C441.712 383.506 441.232 384.208 440.512 384.772C439.804 385.336 438.922 385.618 437.866 385.618ZM437.866 377.824C437.23 377.824 436.666 378.016 436.174 378.4C435.682 378.772 435.382 379.336 435.274 380.092H440.314C440.278 379.396 440.032 378.844 439.576 378.436C439.12 378.028 438.55 377.824 437.866 377.824ZM444.202 385.402V376.474H445.894L446.056 377.734C446.344 377.278 446.722 376.918 447.19 376.654C447.67 376.39 448.222 376.258 448.846 376.258C450.262 376.258 451.246 376.816 451.798 377.932C452.122 377.416 452.554 377.008 453.094 376.708C453.646 376.408 454.24 376.258 454.876 376.258C455.992 376.258 456.868 376.594 457.504 377.266C458.14 377.938 458.458 378.94 458.458 380.272V385.402H456.55V380.47C456.55 378.742 455.89 377.878 454.57 377.878C453.898 377.878 453.346 378.13 452.914 378.634C452.494 379.138 452.284 379.858 452.284 380.794V385.402H450.376V380.47C450.376 378.742 449.71 377.878 448.378 377.878C447.718 377.878 447.172 378.13 446.74 378.634C446.32 379.138 446.11 379.858 446.11 380.794V385.402H444.202ZM465.225 385.402V372.442H467.133V377.914C467.433 377.398 467.847 376.996 468.375 376.708C468.915 376.408 469.509 376.258 470.157 376.258C471.225 376.258 472.065 376.594 472.677 377.266C473.289 377.938 473.595 378.94 473.595 380.272V385.402H471.705V380.47C471.705 378.742 471.015 377.878 469.635 377.878C468.915 377.878 468.315 378.13 467.835 378.634C467.367 379.138 467.133 379.858 467.133 380.794V385.402H465.225ZM480.018 385.618C479.142 385.618 478.362 385.426 477.678 385.042C477.006 384.646 476.478 384.1 476.094 383.404C475.71 382.708 475.518 381.898 475.518 380.974C475.518 380.038 475.704 379.216 476.076 378.508C476.46 377.8 476.988 377.248 477.66 376.852C478.344 376.456 479.136 376.258 480.036 376.258C480.912 376.258 481.674 376.456 482.322 376.852C482.97 377.236 483.474 377.752 483.834 378.4C484.194 379.048 484.374 379.762 484.374 380.542C484.374 380.662 484.368 380.794 484.356 380.938C484.356 381.07 484.35 381.22 484.338 381.388H477.39C477.45 382.252 477.732 382.912 478.236 383.368C478.752 383.812 479.346 384.034 480.018 384.034C480.558 384.034 481.008 383.914 481.368 383.674C481.74 383.422 482.016 383.086 482.196 382.666H484.104C483.864 383.506 483.384 384.208 482.664 384.772C481.956 385.336 481.074 385.618 480.018 385.618ZM480.018 377.824C479.382 377.824 478.818 378.016 478.326 378.4C477.834 378.772 477.534 379.336 477.426 380.092H482.466C482.43 379.396 482.184 378.844 481.728 378.436C481.272 378.028 480.702 377.824 480.018 377.824ZM486.354 385.402V376.474H488.064L488.226 378.166C488.538 377.578 488.97 377.116 489.522 376.78C490.086 376.432 490.764 376.258 491.556 376.258V378.256H491.034C490.506 378.256 490.032 378.346 489.612 378.526C489.204 378.694 488.874 378.988 488.622 379.408C488.382 379.816 488.262 380.386 488.262 381.118V385.402H486.354ZM497.122 385.618C496.246 385.618 495.466 385.426 494.782 385.042C494.11 384.646 493.582 384.1 493.198 383.404C492.814 382.708 492.622 381.898 492.622 380.974C492.622 380.038 492.808 379.216 493.18 378.508C493.564 377.8 494.092 377.248 494.764 376.852C495.448 376.456 496.24 376.258 497.14 376.258C498.016 376.258 498.778 376.456 499.426 376.852C500.074 377.236 500.578 377.752 500.938 378.4C501.298 379.048 501.478 379.762 501.478 380.542C501.478 380.662 501.472 380.794 501.46 380.938C501.46 381.07 501.454 381.22 501.442 381.388H494.494C494.554 382.252 494.836 382.912 495.34 383.368C495.856 383.812 496.45 384.034 497.122 384.034C497.662 384.034 498.112 383.914 498.472 383.674C498.844 383.422 499.12 383.086 499.3 382.666H501.208C500.968 383.506 500.488 384.208 499.768 384.772C499.06 385.336 498.178 385.618 497.122 385.618ZM497.122 377.824C496.486 377.824 495.922 378.016 495.43 378.4C494.938 378.772 494.638 379.336 494.53 380.092H499.57C499.534 379.396 499.288 378.844 498.832 378.436C498.376 378.028 497.806 377.824 497.122 377.824Z" fill="#9E9E9E"/>
<defs>
<filter id="filter0_f_1_12837" x="281.148" y="143.702" width="264.76" height="86.221" filterUnits="userSpaceOnUse" color-interpolation-filters="sRGB">
<feFlood flood-opacity="0" result="BackgroundImageFix"/>
<feBlend mode="normal" in="SourceGraphic" in2="BackgroundImageFix" result="shape"/>
<feGaussianBlur stdDeviation="10.8865" result="effect1_foregroundBlur_1_12837"/>
</filter>
<filter id="filter1_d_1_12837" x="310.759" y="12.1929" width="203.549" height="140.993" filterUnits="userSpaceOnUse" color-interpolation-filters="sRGB">
<feFlood flood-opacity="0" result="BackgroundImageFix"/>
<feColorMatrix in="SourceAlpha" type="matrix" values="0 0 0 0 0 0 0 0 0 0 0 0 0 0 0 0 0 0 127 0" result="hardAlpha"/>
<feOffset dy="3.48368"/>
<feGaussianBlur stdDeviation="1.74184"/>
<feComposite in2="hardAlpha" operator="out"/>
<feColorMatrix type="matrix" values="0 0 0 0 0 0 0 0 0 0 0 0 0 0 0 0 0 0 0.25 0"/>
<feBlend mode="normal" in2="BackgroundImageFix" result="effect1_dropShadow_1_12837"/>
<feBlend mode="normal" in="SourceGraphic" in2="effect1_dropShadow_1_12837" result="shape"/>
</filter>
<filter id="filter2_d_1_12837" x="266.342" y="49.6425" width="133.251" height="86.459" filterUnits="userSpaceOnUse" color-interpolation-filters="sRGB">
<feFlood flood-opacity="0" result="BackgroundImageFix"/>
<feColorMatrix in="SourceAlpha" type="matrix" values="0 0 0 0 0 0 0 0 0 0 0 0 0 0 0 0 0 0 127 0" result="hardAlpha"/>
<feOffset dy="3.48368"/>
<feGaussianBlur stdDeviation="5.22552"/>
<feComposite in2="hardAlpha" operator="out"/>
<feColorMatrix type="matrix" values="0 0 0 0 0.0196078 0 0 0 0 0.168627 0 0 0 0 0.396078 0 0 0 0.15 0"/>
<feBlend mode="normal" in2="BackgroundImageFix" result="effect1_dropShadow_1_12837"/>
<feBlend mode="normal" in="SourceGraphic" in2="effect1_dropShadow_1_12837" result="shape"/>
</filter>
<filter id="filter3_d_1_12837" x="400.5" y="91.2088" width="165.841" height="109.103" filterUnits="userSpaceOnUse" color-interpolation-filters="sRGB">
<feFlood flood-opacity="0" result="BackgroundImageFix"/>
<feColorMatrix in="SourceAlpha" type="matrix" values="0 0 0 0 0 0 0 0 0 0 0 0 0 0 0 0 0 0 127 0" result="hardAlpha"/>
<feOffset dx="-5.28021" dy="13.0638"/>
<feGaussianBlur stdDeviation="7.40282"/>
<feComposite in2="hardAlpha" operator="out"/>
<feColorMatrix type="matrix" values="0 0 0 0 0.021441 0 0 0 0 0.168056 0 0 0 0 0.395833 0 0 0 0.15 0"/>
<feBlend mode="normal" in2="BackgroundImageFix" result="effect1_dropShadow_1_12837"/>
<feBlend mode="normal" in="SourceGraphic" in2="effect1_dropShadow_1_12837" result="shape"/>
</filter>
<linearGradient id="paint0_linear_1_12837" x1="413.859" y1="-37.3495" x2="416.209" y2="365.463" gradientUnits="userSpaceOnUse">
<stop stop-color="#21262D"/>
<stop offset="1" stop-color="#BCD8FF"/>
</linearGradient>
<linearGradient id="paint1_linear_1_12837" x1="412.533" y1="12.1929" x2="412.533" y2="146.219" gradientUnits="userSpaceOnUse">
<stop stop-color="#EDF4FF"/>
<stop offset="1" stop-color="#ABCCFF"/>
</linearGradient>
<linearGradient id="paint2_linear_1_12837" x1="355.397" y1="77.624" x2="355.397" y2="193.594" gradientUnits="userSpaceOnUse">
<stop stop-color="#ABCCFF"/>
<stop offset="1" stop-color="#70A8FF"/>
</linearGradient>
<linearGradient id="paint3_linear_1_12837" x1="469.678" y1="77.624" x2="469.678" y2="193.594" gradientUnits="userSpaceOnUse">
<stop stop-color="#ABCCFF"/>
<stop offset="1" stop-color="#70A8FF"/>
</linearGradient>
<linearGradient id="paint4_linear_1_12837" x1="412.533" y1="127.006" x2="412.533" y2="193.594" gradientUnits="userSpaceOnUse">
<stop stop-color="#70A8FF"/>
<stop offset="1" stop-color="#5597FD"/>
</linearGradient>
<linearGradient id="paint5_linear_1_12837" x1="288.986" y1="85.7857" x2="362.579" y2="71.4155" gradientUnits="userSpaceOnUse">
<stop stop-color="#C6DDFF"/>
<stop offset="1" stop-color="white"/>
</linearGradient>
<linearGradient id="paint6_linear_1_12837" x1="542.031" y1="128.328" x2="452.795" y2="110.903" gradientUnits="userSpaceOnUse">
<stop stop-color="#C6DDFF"/>
<stop offset="1" stop-color="white"/>
</linearGradient>
<linearGradient id="paint7_linear_1_12837" x1="497.48" y1="23.1883" x2="516.532" y2="39.6995" gradientUnits="userSpaceOnUse">
<stop stop-color="#94BFFF"/>
<stop offset="1" stop-color="#4C94FE"/>
</linearGradient>
<linearGradient id="paint8_linear_1_12837" x1="327.651" y1="200.856" x2="346.703" y2="217.367" gradientUnits="userSpaceOnUse">
<stop stop-color="#94BFFF"/>
<stop offset="1" stop-color="#4C94FE"/>
</linearGradient>
<linearGradient id="paint9_linear_1_12837" x1="474.837" y1="210.436" x2="493.888" y2="226.947" gradientUnits="userSpaceOnUse">
<stop stop-color="#94BFFF"/>
<stop offset="1" stop-color="#4C94FE"/>
</linearGradient>
<linearGradient id="paint10_linear_1_12837" x1="353.434" y1="23.5149" x2="353.434" y2="65.319" gradientUnits="userSpaceOnUse">
<stop stop-color="#70A8FF"/>
<stop offset="1" stop-color="#5597FD"/>
</linearGradient>
<linearGradient id="paint11_linear_1_12837" x1="527.944" y1="175" x2="527.944" y2="216.804" gradientUnits="userSpaceOnUse">
<stop stop-color="#70A8FF"/>
<stop offset="1" stop-color="#5597FD"/>
</linearGradient>
<linearGradient id="paint12_linear_1_12837" x1="306.255" y1="166.137" x2="292.737" y2="177.122" gradientUnits="userSpaceOnUse">
<stop stop-color="#70A8FF"/>
<stop offset="1" stop-color="#5597FD"/>
</linearGradient>
<linearGradient id="paint13_linear_1_12837" x1="528.625" y1="77.4985" x2="540.791" y2="89.9639" gradientUnits="userSpaceOnUse">
<stop stop-color="#70A8FF"/>
<stop offset="1" stop-color="#5597FD"/>
</linearGradient>
</defs>
</svg>
